PathFileType	4	(X/Y/Z)	TVC_4_BWA_7_walk_RCNL2025.trc
DataRate	CameraRate	NumFrames	NumMarkers	Units	OrigDataRate	OrigDataStartFrame	OrigNumFrames
100	100	8	27	mm	100	238	474
Frame#	Time	R_Shoulder			L_Shoulder			C7			J_Notch			R_Elbow			L_Elbow			R_Wrist			L_Wrist			R_Asis			L_Asis			R_Psis			L_Psis			Sacral			Thoracic			Sternum			R_Thigh_Lateral			R_Knee_Lateral			R_Shank_Lateral			R_Ankle_Lateral			R_Heel			R_Toe			L_Thigh_Lateral			L_Knee_Lateral			L_Shank_Lateral			L_Ankle_Lateral			L_Heel			L_Toe		
		X1	Y1	Z1	X2	Y2	Z2	X3	Y3	Z3	X4	Y4	Z4	X5	Y5	Z5	X6	Y6	Z6	X7	Y7	Z7	X8	Y8	Z8	X9	Y9	Z9	X10	Y10	Z10	X11	Y11	Z11	X12	Y12	Z12	X13	Y13	Z13	X14	Y14	Z14	X15	Y15	Z15	X16	Y16	Z16	X17	Y17	Z17	X18	Y18	Z18	X19	Y19	Z19	X20	Y20	Z20	X21	Y21	Z21	X22	Y22	Z22	X23	Y23	Z23	X24	Y24	Z24	X25	Y25	Z25	X26	Y26	Z26	X27	Y27	Z27
238	2.37000000	184.244324	1307.855347	21.141588	165.972290	1327.985840	-359.278931	120.194984	1385.721924	-151.432526	253.656830	1258.881470	-184.889404	167.900757	995.443909	96.006752	81.564323	1010.683472	-425.013794	266.261177	786.607452	85.180374	169.239563	812.435181	-441.574738	187.455490	872.433228	-1.893915	125.594093	861.667114	-349.471680	24.875895	909.191895	-97.557968	9.782202	903.814636	-189.097458	17.329048	906.503265	-143.327713	31.390074	1138.866089	-150.338150	286.618591	1068.945312	-192.892929	203.143524	520.522949	3.758004	181.975235	429.948639	-49.885292	147.450012	259.091919	11.107257	97.294640	55.382690	-89.108765	46.509571	53.478584	-132.502609	225.027969	41.455559	-116.431473	238.818375	517.595093	-359.139893	246.540283	442.220001	-313.889435	198.826157	339.294495	-361.723724	100.892570	103.842934	-286.846039	60.380981	105.311852	-234.574173	223.548691	53.484756	-289.652405
239	2.38000000	192.772797	1307.932739	21.700825	173.832336	1327.498047	-358.774780	128.556915	1385.474609	-150.820602	262.013306	1258.704468	-184.403793	181.068344	995.433472	97.138977	86.567093	1010.749817	-422.358856	283.843140	788.685883	85.483929	168.343613	810.115021	-439.482498	196.079575	871.980591	-1.548787	134.936523	861.959229	-349.320099	33.523758	908.705261	-97.511459	18.726894	903.437256	-189.096848	26.125326	906.071259	-143.304153	39.934193	1138.548950	-149.446823	295.082062	1068.936401	-192.363632	208.544403	519.769348	3.505594	185.773697	429.340271	-49.993366	150.299515	258.699188	10.870194	97.401047	55.432274	-89.127937	46.621426	53.735710	-132.482864	225.062851	41.443409	-116.430061	251.581833	519.180176	-358.512817	259.720398	442.755859	-313.178650	216.938370	336.731354	-361.082092	130.668625	96.825684	-285.655609	90.118095	96.353310	-233.333801	255.717636	52.829208	-288.461609
240	2.39000000	201.284912	1307.872681	22.218504	181.757446	1326.894165	-358.307312	136.906616	1385.086182	-150.262405	270.384430	1258.399048	-183.926453	194.115616	995.343750	98.165916	91.689201	1010.747192	-419.763062	301.351669	790.784973	85.713131	167.589928	807.905792	-437.402634	204.640701	871.415222	-1.230652	144.387497	862.028137	-349.243958	42.154999	908.082703	-97.606331	27.702768	902.903198	-189.234543	34.928884	905.492950	-143.420437	48.479057	1138.091919	-148.668808	303.572876	1068.790039	-191.827728	213.872620	518.955444	3.267902	189.606720	428.687225	-50.108967	153.107346	258.285248	10.614477	97.512817	55.496197	-89.157417	46.727619	54.002403	-132.468002	225.108597	41.413002	-116.444099	263.900299	520.449219	-357.954041	272.281342	442.989624	-312.549011	234.538284	334.089996	-360.460632	160.861725	90.250473	-284.454681	120.474388	87.807838	-232.017456	288.004089	52.680702	-287.411713
241	2.40000000	209.785919	1307.660522	22.694717	189.753845	1326.169189	-357.878510	145.248535	1384.551880	-149.757797	278.775909	1257.959961	-183.458939	207.037354	995.157104	99.087234	96.938629	1010.664673	-417.238434	318.756836	792.888397	85.867914	167.024017	805.805664	-435.348007	213.124374	870.738953	-0.928999	153.958725	861.871216	-349.234283	50.776276	907.318359	-97.841270	36.716171	902.205139	-189.507446	43.746223	904.761749	-143.674358	57.029457	1137.490723	-148.006378	312.094788	1068.494995	-191.290680	219.143066	518.094971	3.063304	193.469543	427.992493	-50.220257	155.755173	257.865936	10.381318	97.629723	55.579422	-89.192505	46.828022	54.283176	-132.455505	225.159927	41.370209	-116.474022	275.695831	521.322205	-357.460815	284.194153	442.912323	-312.006714	251.545197	331.408508	-359.865295	191.347855	84.245918	-283.249817	151.331375	79.834335	-230.628281	320.273895	53.083614	-286.512665
242	2.41000000	218.279221	1307.285034	23.128605	197.826950	1325.319580	-357.491455	153.586517	1383.869629	-149.307755	287.192810	1257.384888	-183.004456	219.830826	994.858459	99.902412	102.323990	1010.492676	-414.798157	336.025955	794.978455	85.945215	166.691429	803.810242	-433.332504	221.520187	869.956116	-0.634747	163.659424	861.488586	-349.280823	59.396114	906.408569	-98.212990	45.773842	901.338562	-189.910675	52.584978	903.873566	-144.061832	65.590561	1136.742676	-147.461746	320.651489	1068.043335	-190.757492	224.358109	517.198242	2.910827	197.352463	427.261871	-50.314552	158.185150	257.446106	10.196590	97.751556	55.686680	-89.227715	46.924725	54.584614	-132.442902	225.208801	41.322472	-116.516602	286.899384	521.727539	-357.045349	295.457397	442.517548	-311.556946	267.923523	328.714417	-359.300934	221.975311	78.920639	-282.046997	182.527908	72.576744	-229.175827	352.377930	54.065353	-285.751923
243	2.42000000	226.766495	1306.738525	23.518305	205.981186	1324.343994	-357.150116	161.923691	1383.039185	-148.914429	295.639435	1256.673706	-182.567749	232.495087	994.435974	100.610611	107.854500	1010.223083	-412.456116	353.124359	797.035004	85.939838	166.637375	801.913116	-431.370895	229.823669	869.072998	-0.340835	173.494568	860.882507	-349.372986	68.025040	905.352173	-98.715981	54.882908	900.302063	-190.437454	61.453974	902.827118	-144.576717	74.167984	1135.847168	-147.036926	329.246674	1067.430420	-190.232605	229.513763	516.270874	2.827115	201.244232	426.503052	-50.380051	160.398788	257.024323	10.072344	97.878418	55.822315	-89.257576	47.020866	54.915600	-132.427246	225.246841	41.276802	-116.566765	297.453003	521.603271	-356.734131	306.099792	441.804291	-311.203003	283.686493	326.029053	-358.771393	252.564163	74.355469	-280.850494	213.857361	66.153328	-227.676041	384.150848	55.635128	-285.092438
244	2.43000000	235.247772	1306.017578	23.861040	214.219696	1323.243286	-356.859222	170.262680	1382.063477	-148.580826	304.119476	1255.829590	-182.154938	245.030212	993.881775	101.210541	113.539787	1009.849548	-410.226776	370.016464	799.035950	85.845491	166.906364	800.106262	-429.478683	238.037613	868.097168	-0.042753	183.464142	860.056946	-349.500641	76.675499	904.151001	-99.342445	64.050827	899.098083	-191.079086	70.363163	901.624542	-145.210766	82.767899	1134.805664	-146.733505	337.884460	1066.655518	-189.720078	234.605240	515.314087	2.823912	205.135132	425.724670	-50.407528	162.441315	256.602020	10.011222	98.010803	55.990604	-89.277176	47.119667	55.287006	-132.404587	225.268097	41.238388	-116.618942	307.316345	520.901611	-356.562775	316.180054	440.779602	-310.944855	298.892670	323.372742	-358.280365	282.907104	70.595978	-279.661865	245.068573	60.645428	-226.150696	415.410187	57.782776	-284.475037
245	2.44000000	243.721588	1305.123169	24.153229	222.544266	1322.021240	-356.624176	178.605637	1380.947876	-148.310822	312.635925	1254.859009	-181.773163	257.436371	993.192139	101.700478	119.389725	1009.367676	-408.124756	386.667084	800.959534	85.655983	167.541824	798.380585	-427.671982	246.173141	867.037170	0.260947	193.562683	859.017944	-349.654541	85.361717	902.810120	-100.082230	73.285286	897.733215	-191.825089	79.323502	900.271667	-145.953659	91.396996	1133.622192	-146.552444	346.569489	1065.722900	-189.223862	239.630798	514.325684	2.906765	209.019806	424.935394	-50.391712	164.377182	256.188202	10.010846	98.149597	56.196220	-89.282242	47.224010	55.711285	-132.369553	225.270935	41.209644	-116.667694	316.477417	519.596497	-356.566498	325.784241	439.460846	-310.778015	313.635162	320.770081	-357.831726	312.772522	67.646767	-278.479340	275.871796	56.087391	-224.625961	445.956451	60.477146	-283.824677
